<?xml version="1.0" standalone="no"?>
<!DOCTYPE svg PUBLIC "-//W3C//DTD SVG 20010904//EN"
 "http://www.w3.org/TR/2001/REC-SVG-20010904/DTD/svg10.dtd">
<svg version="1.0" xmlns="http://www.w3.org/2000/svg"
 width="180.000000pt" height="180.000000pt" viewBox="0 0 180.000000 180.000000"
 preserveAspectRatio="xMidYMid meet">

<g transform="translate(0.000000,180.000000) scale(0.100000,-0.100000)"
fill="#000000" stroke="none">
<path d="M292 1251 l-201 -350 202 -350 202 -351 406 0 407 0 200 349 201 350
-202 350 -202 351 -406 0 -407 0 -200 -349z m973 -55 c18 -33 18 -34 -1 -67
-12 -20 -120 -112 -268 -229 l-249 -195 252 -3 251 -2 16 -31 c15 -29 15 -34
-2 -65 l-19 -34 -346 0 -346 0 -18 34 c-18 33 -18 34 1 67 12 21 115 107 266
224 136 104 247 193 247 198 1 4 -111 7 -249 7 l-249 0 -17 31 c-15 29 -15 34
2 65 l19 34 346 0 346 0 18 -34z"/>
</g>
</svg>
